{"title":"Star Trek Continues E04 720p The White Iris.mp4","uid":11977309,"size":451507764,"categoryP":"video","categoryS":"tv_shows","magnet":"?xt=urn:btih:d5be535274fd620e2a350e45eb33ac63beb979ac&amp;dn=Star+Trek+Continues+E04+720p+The+White+Iris.mp4&amp;tr=udp%3A%2F%2Ftracker.openbittorrent.com%3A80&amp;tr=udp%3A%2F%2Fopen.demonii.com%3A1337&amp;tr=udp%3A%2F%2Ftracker.coppersurfer.tk%3A6969&amp;tr=udp%3A%2F%2Fexodus.desync.com%3A6969","seeders":1,"leechers":0,"uploader":"mikrovision","files":1,"time":1433068515,"description":"Star Trek Continues E04 720p &quot;The White Iris&quot;\nCaptain Kirk finds himself haunted by guilt from his past as the fate of an alien world hangs in the balance.\n\nFormat : MPEG-4\nFormat profile : Base Media / Version 2\nCodec ID : mp42\nFile size : 431 MiB\nDuration : 47mn 54s\nOverall bit rate mode : Variable\nOverall bit rate : 1 257 Kbps\nEncoded date : UTC 2015-05-27 00:51:38\nTagged date : UTC 2015-05-27 00:51:38\ngsst : 0\ngstd : 2874305\ngssd : B0AFCFB01HH1433051972530798\ngshh : r1---sn-hp57knel.googlevideo.com\n\nVideo\nID : 1\nFormat : AVC\nFormat/Info : Advanced Video Codec\nFormat profile : &lt;a class=&quot;__cf_email__&quot; href=&quot;/cdn-cgi/l/email-protection&quot; data-cfemail=&quot;a8e0c1cfc0e8e49b8699&quot;&gt;[email&amp;#160;protected]&lt;/a&gt;&lt;script data-cfhash='f9e31' type=&quot;text/javascript&quot;&gt;\n/* &lt;![CDATA[ */!function(){try{var t=&quot;currentScript&quot;in document?document.currentScript:function(){for(var t=document.getElementsByTagName(&quot;script&quot;),e=t.length;e--;)if(t[e].getAttribute(&quot;data-cfhash&quot;))return t[e]}();if(t&amp;&amp;t.previousSibling){var e,r,n,i,c=t.previousSibling,a=c.getAttribute(&quot;data-cfemail&quot;);if(a){for(e=&quot;&quot;,r=parseInt(a.substr(0,2),16),n=2;a.length-n;n+=2)i=parseInt(a.substr(n,2),16)^r,e+=String.fromCharCode(i);e=document.createTextNode(e),c.parentNode.replaceChild(e,c)}t.parentNode.removeChild(t);}}catch(u){}}()/* ]]&gt; */&lt;/script&gt;\nFormat settings, CABAC : Yes\nFormat settings, ReFrames : 1 frame\nFormat settings, GOP : M=1, N=60\nCodec ID : avc1\nCodec ID/Info : Advanced Video Coding\nDuration : 47mn 54s\nBit rate : 1 062 Kbps\nMaximum bit rate : 3 299 Kbps\nWidth : 960 pixels\nHeight : 720 pixels\nDisplay aspect ratio : 4:3\nFrame rate mode : Constant\nFrame rate : 23.976 fps\nColor space : YUV\nChroma subsampling : 4:2:0\nBit depth : 8 bits\nScan type : Progressive\nBits/(Pixel*Frame) : 0.064\nStream size : 364 MiB (85%)\nTagged date : UTC 2015-05-27 00:52:24\n\nAudio\nID : 2\nFormat : AAC\nFormat/Info : Advanced Audio Codec\nFormat profile : LC\nCodec ID : 40\nDuration : 47mn 54s\nBit rate mode : Variable\nBit rate : 192 Kbps\nMaximum bit rate : 202 Kbps\nChannel(s) : 2 channels\nChannel positions : Front: L R\nSampling rate : 44.1 KHz\nCompression mode : Lossy\nStream size : 65.8 MiB (15%)\nTitle : IsoMedia File Produced by Google, 5-11-2011\nLanguage : English\nEncoded date : UTC 2015-05-27 00:52:09\nTagged date : UTC 2015-05-27 00:52:24","torrent":{"xt":"urn:btih:d5be535274fd620e2a350e45eb33ac63beb979ac","amp;dn":"Star+Trek+Continues+E04+720p+The+White+Iris.mp4","amp;tr":["udp%3A%2F%2Ftracker.openbittorrent.com%3A80","udp%3A%2F%2Fopen.demonii.com%3A1337","udp%3A%2F%2Ftracker.coppersurfer.tk%3A6969","udp%3A%2F%2Fexodus.desync.com%3A6969"],"infoHash":"d5be535274fd620e2a350e45eb33ac63beb979ac","infoHashBuffer":{"type":"Buffer","data":[213,190,83,82,116,253,98,14,42,53,14,69,235,51,172,99,190,185,121,172]},"announce":[],"urlList":[]}}